<svg xmlns="http://www.w3.org/2000/svg" xmlns:xlink="http://www.w3.org/1999/xlink" version="1.1" width="25" height="25" viewBox="0 -12 55 60 " xml:space="preserve">
<desc>Created with Fabric.js 3.5.0</desc>
<defs>
</defs>
<rect x="0" y="0" width="100%" height="100%" fill="rgba(255,255,255,0)"/>
<g transform="matrix(0.362 0 0 0.362 25.3347 25.3347)" id="985447">
<g style="" vector-effect="non-scaling-stroke">
		<g transform="matrix(1 0 0 1 4.0063 -52.4004)" id="Layer_1">
<path style="stroke: none; stroke-width: 1; stroke-dasharray: none; stroke-linecap: butt; stroke-dashoffset: 0; stroke-linejoin: miter; stroke-miterlimit: 4; is-custom-font: none; font-file-url: none; fill: rgb(122,21,219); fill-rule: nonzero; opacity: 1;" transform=" translate(-68.0063, -11.5997)" d="M 67.3 20.7 c 5 0.4 9.4 -3.4 9.8 -8.4 c 0.4 -5 -3.3 -9.4 -8.4 -9.8 c -5 -0.4 -9.4 3.3 -9.8 8.4 C 58.6 15.9 62.3 20.3 67.3 20.7" stroke-linecap="round"/>
</g>
		<g transform="matrix(1 0 0 1 0.0498 3.5417)" id="Layer_1">
<path style="stroke: none; stroke-width: 1; stroke-dasharray: none; stroke-linecap: butt; stroke-dashoffset: 0; stroke-linejoin: miter; stroke-miterlimit: 4; is-custom-font: none; font-file-url: none; fill: rgb(122,21,219); fill-rule: nonzero; opacity: 1;" transform=" translate(-64.0498, -67.5416)" d="M 59.6 24.4 c 1.8 -1.2 4 -2.1 6.4 -1.9 c 3.1 0.3 5.7 2.2 7.3 4.6 l 9.2 18.2 L 95 54 c 1.1 0.8 1.7 2.2 1.6 3.6 c -0.2 2.3 -2.2 3.9 -4.4 3.8 c -0.7 0 -1.2 -0.3 -1.9 -0.6 l -13.7 -9.4 c -0.4 -0.4 -0.8 -0.8 -1 -1.2 l -3.4 -6.8 L 68 61.4 l 16.2 19.1 c 0.4 0.6 0.6 1.3 0.8 2 l 4.4 23.1 c 0 0.5 0.1 0.8 0 1.3 c -0.3 3.4 -3.2 5.9 -6.7 5.7 c -2.8 -0.2 -4.9 -2.3 -5.6 -4.9 L 73 86 L 59.9 71.6 l -3.1 14 c -0.1 0.7 -1 2 -1.2 2.6 L 43 109.5 c -1.3 2 -3.4 3.2 -5.8 3 c -3.4 -0.3 -5.9 -3.2 -5.7 -6.7 c 0.1 -1 0.5 -2 0.8 -2.6 l 11.7 -19.7 l 9.7 -43.3 l -6.4 5.2 l -3.4 15.4 c -0.4 2 -2.2 3.6 -4.4 3.4 c -2.2 -0.2 -4 -2.1 -3.8 -4.4 c 0 -0.2 0.1 -0.4 0.1 -0.5 l 4 -18 c 0.2 -0.8 0.7 -1.5 1.3 -2 L 59.6 24.4 z" stroke-linecap="round"/>
</g>
		<g transform="matrix(1 0 0 1 -57 29.05)" id="Layer_1">
<rect style="stroke: none; stroke-width: 1; stroke-dasharray: none; stroke-linecap: butt; stroke-dashoffset: 0; stroke-linejoin: miter; stroke-miterlimit: 4; is-custom-font: none; font-file-url: none; fill: rgb(122,21,219); fill-rule: nonzero; opacity: 1;" x="-4.7" y="-3.75" rx="0" ry="0" width="9.4" height="7.5"/>
</g>
		<g transform="matrix(1 0 0 1 -38.4 29.05)" id="Layer_1">
<rect style="stroke: none; stroke-width: 1; stroke-dasharray: none; stroke-linecap: butt; stroke-dashoffset: 0; stroke-linejoin: miter; stroke-miterlimit: 4; is-custom-font: none; font-file-url: none; fill: rgb(122,21,219); fill-rule: nonzero; opacity: 1;" x="-4.7" y="-3.75" rx="0" ry="0" width="9.4" height="7.5"/>
</g>
		<g transform="matrix(1 0 0 1 -1.2 29.05)" id="Layer_1">
<rect style="stroke: none; stroke-width: 1; stroke-dasharray: none; stroke-linecap: butt; stroke-dashoffset: 0; stroke-linejoin: miter; stroke-miterlimit: 4; is-custom-font: none; font-file-url: none; fill: rgb(122,21,219); fill-rule: nonzero; opacity: 1;" x="-4.7" y="-3.75" rx="0" ry="0" width="9.4" height="7.5"/>
</g>
		<g transform="matrix(1 0 0 1 36.4 29.05)" id="Layer_1">
<rect style="stroke: none; stroke-width: 1; stroke-dasharray: none; stroke-linecap: butt; stroke-dashoffset: 0; stroke-linejoin: miter; stroke-miterlimit: 4; is-custom-font: none; font-file-url: none; fill: rgb(122,21,219); fill-rule: nonzero; opacity: 1;" x="-4.7" y="-3.75" rx="0" ry="0" width="9.4" height="7.5"/>
</g>
		<g transform="matrix(1 0 0 1 54.9 29.05)" id="Layer_1">
<rect style="stroke: none; stroke-width: 1; stroke-dasharray: none; stroke-linecap: butt; stroke-dashoffset: 0; stroke-linejoin: miter; stroke-miterlimit: 4; is-custom-font: none; font-file-url: none; fill: rgb(122,21,219); fill-rule: nonzero; opacity: 1;" x="-4.7" y="-3.75" rx="0" ry="0" width="9.4" height="7.5"/>
</g>
		<g transform="matrix(1 0 0 1 -57 56.25)" id="Layer_1">
<rect style="stroke: none; stroke-width: 1; stroke-dasharray: none; stroke-linecap: butt; stroke-dashoffset: 0; stroke-linejoin: miter; stroke-miterlimit: 4; is-custom-font: none; font-file-url: none; fill: rgb(122,21,219); fill-rule: nonzero; opacity: 1;" x="-4.7" y="-3.75" rx="0" ry="0" width="9.4" height="7.5"/>
</g>
		<g transform="matrix(1 0 0 1 -38.4 56.25)" id="Layer_1">
<rect style="stroke: none; stroke-width: 1; stroke-dasharray: none; stroke-linecap: butt; stroke-dashoffset: 0; stroke-linejoin: miter; stroke-miterlimit: 4; is-custom-font: none; font-file-url: none; fill: rgb(122,21,219); fill-rule: nonzero; opacity: 1;" x="-4.7" y="-3.75" rx="0" ry="0" width="9.4" height="7.5"/>
</g>
		<g transform="matrix(1 0 0 1 -19.7 56.25)" id="Layer_1">
<rect style="stroke: none; stroke-width: 1; stroke-dasharray: none; stroke-linecap: butt; stroke-dashoffset: 0; stroke-linejoin: miter; stroke-miterlimit: 4; is-custom-font: none; font-file-url: none; fill: rgb(122,21,219); fill-rule: nonzero; opacity: 1;" x="-4.7" y="-3.75" rx="0" ry="0" width="9.4" height="7.5"/>
</g>
		<g transform="matrix(1 0 0 1 17.8 56.25)" id="Layer_1">
<rect style="stroke: none; stroke-width: 1; stroke-dasharray: none; stroke-linecap: butt; stroke-dashoffset: 0; stroke-linejoin: miter; stroke-miterlimit: 4; is-custom-font: none; font-file-url: none; fill: rgb(122,21,219); fill-rule: nonzero; opacity: 1;" x="-4.7" y="-3.75" rx="0" ry="0" width="9.4" height="7.5"/>
</g>
		<g transform="matrix(1 0 0 1 -1.2 56.25)" id="Layer_1">
<rect style="stroke: none; stroke-width: 1; stroke-dasharray: none; stroke-linecap: butt; stroke-dashoffset: 0; stroke-linejoin: miter; stroke-miterlimit: 4; is-custom-font: none; font-file-url: none; fill: rgb(122,21,219); fill-rule: nonzero; opacity: 1;" x="-4.7" y="-3.75" rx="0" ry="0" width="9.4" height="7.5"/>
</g>
		<g transform="matrix(1 0 0 1 36.4 56.25)" id="Layer_1">
<rect style="stroke: none; stroke-width: 1; stroke-dasharray: none; stroke-linecap: butt; stroke-dashoffset: 0; stroke-linejoin: miter; stroke-miterlimit: 4; is-custom-font: none; font-file-url: none; fill: rgb(122,21,219); fill-rule: nonzero; opacity: 1;" x="-4.7" y="-3.75" rx="0" ry="0" width="9.4" height="7.5"/>
</g>
		<g transform="matrix(1 0 0 1 54.9 56.25)" id="Layer_1">
<rect style="stroke: none; stroke-width: 1; stroke-dasharray: none; stroke-linecap: butt; stroke-dashoffset: 0; stroke-linejoin: miter; stroke-miterlimit: 4; is-custom-font: none; font-file-url: none; fill: rgb(122,21,219); fill-rule: nonzero; opacity: 1;" x="-4.7" y="-3.75" rx="0" ry="0" width="9.4" height="7.5"/>
</g>
</g>
</g>
</svg>