<svg xmlns="http://www.w3.org/2000/svg" xmlns:xlink="http://www.w3.org/1999/xlink" version="1.1" width="30" height="30" viewBox="2 -12 50 60" xml:space="preserve">
<desc>Created with Fabric.js 3.5.0</desc>
<defs>
</defs>
<rect x="0" y="0" width="100%" height="100%" fill="rgba(255,255,255,0)"/>
<g transform="matrix(2.1042 0 0 2.1042 23.5837 26.0837)" id="723183">
<g style="" vector-effect="non-scaling-stroke">
		<g transform="matrix(1 0 0 1 -3.3867 -0.2105)" id="Rate">
<path style="stroke: none; stroke-width: 1; stroke-dasharray: none; stroke-linecap: butt; stroke-dashoffset: 0; stroke-linejoin: miter; stroke-miterlimit: 4; is-custom-font: none; font-file-url: none; fill: rgb(255,59,0); fill-rule: evenodd; opacity: 1;" transform=" translate(-8.6133, -11.7896)" d="M 7.63 14.14 L 10.43 10 a 0.5 0.5 0 0 0 -0.83 -0.56 L 6.8 13.58 a 0.49 0.49 0 0 0 0.13 0.69 A 0.5 0.5 0 0 0 7.63 14.14 Z" stroke-linecap="round"/>
</g>
		<g transform="matrix(1 0 0 1 1.4887 -1.8592)" id="Rate">
<path style="stroke: none; stroke-width: 1; stroke-dasharray: none; stroke-linecap: butt; stroke-dashoffset: 0; stroke-linejoin: miter; stroke-miterlimit: 4; is-custom-font: none; font-file-url: none; fill: rgb(123,129,128); fill-rule: evenodd; opacity: 1;" transform=" translate(-13.4887, -10.1408)" d="M 11.82 9.56 l 2.8 2 a 0.5 0.5 0 0 0 0.69 -0.11 a 0.51 0.51 0 0 0 -0.11 -0.7 l -2.8 -2 a 0.5 0.5 0 1 0 -0.58 0.81 Z" stroke-linecap="round"/>
</g>
		<g transform="matrix(1 0 0 1 6.3914 -3.4204)" id="Rate">
<path style="stroke: none; stroke-width: 1; stroke-dasharray: none; stroke-linecap: butt; stroke-dashoffset: 0; stroke-linejoin: miter; stroke-miterlimit: 4; is-custom-font: none; font-file-url: none; fill: rgb(123,129,128); fill-rule: evenodd; opacity: 1;" transform=" translate(-18.3913, -8.5796)" d="M 17.45 10.92 l 2.69 -4.09 a 0.5 0.5 0 0 0 -0.84 -0.55 l -2.68 4.09 a 0.5 0.5 0 0 0 0.83 0.55 Z" stroke-linecap="round"/>
</g>
		<g transform="matrix(1 0 0 1 -5.6601 2.98)" id="Rate">
<path style="stroke: none; stroke-width: 1; stroke-dasharray: none; stroke-linecap: butt; stroke-dashoffset: 0; stroke-linejoin: miter; stroke-miterlimit: 4; is-custom-font: none; font-file-url: none; fill: rgb(250,166,0); fill-rule: nonzero; opacity: 1;" transform=" translate(-6.3399, -14.98)" d="M 6.34 13.2 A 1.78 1.78 0 1 1 4.56 15 A 1.78 1.78 0 0 1 6.34 13.2" stroke-linecap="round"/>
</g>
		<g transform="matrix(1 0 0 1 -1.22 -3.4302)" id="Rate">
<path style="stroke: none; stroke-width: 1; stroke-dasharray: none; stroke-linecap: butt; stroke-dashoffset: 0; stroke-linejoin: miter; stroke-miterlimit: 4; is-custom-font: none; font-file-url: none; fill: rgb(29,0,255); fill-rule: nonzero; opacity: 1;" transform=" translate(-10.78, -8.5698)" d="M 10.82 6.79 A 1.78 1.78 0 1 1 9 8.57 a 1.78 1.78 0 0 1 1.78 -1.78" stroke-linecap="round"/>
</g>
		<g transform="matrix(1 0 0 1 4.18 -0.22)" id="Rate">
<path style="stroke: none; stroke-width: 1; stroke-dasharray: none; stroke-linecap: butt; stroke-dashoffset: 0; stroke-linejoin: miter; stroke-miterlimit: 4; is-custom-font: none; font-file-url: none; fill: rgb(250,166,0); fill-rule: nonzero; opacity: 1;" transform=" translate(-16.18, -11.78)" d="M 16.18 10 a 1.78 1.78 0 1 1 -1.78 1.78 A 1.78 1.78 0 0 1 16.18 10" stroke-linecap="round"/>
</g>
		<g transform="matrix(1 0 0 1 8.49 -6.63)" id="Rate">
<path style="stroke: none; stroke-width: 1; stroke-dasharray: none; stroke-linecap: butt; stroke-dashoffset: 0; stroke-linejoin: miter; stroke-miterlimit: 4; is-custom-font: none; font-file-url: none; fill: rgb(29,0,255); fill-rule: nonzero; opacity: 1;" transform=" translate(-20.49, -5.37)" d="M 20.49 3.59 a 1.78 1.78 0 1 1 -1.78 1.78 a 1.78 1.78 0 0 1 1.78 -1.78" stroke-linecap="round"/>
</g>
		<g transform="matrix(1 0 0 1 6.715 5.605)" id="Rate">
<rect style="stroke: none; stroke-width: 1; stroke-dasharray: none; stroke-linecap: butt; stroke-dashoffset: 0; stroke-linejoin: miter; stroke-miterlimit: 4; is-custom-font: none; font-file-url: none; fill: rgb(250,166,0); fill-rule: nonzero; opacity: 1;" x="-2.455" y="-0.945" rx="0.43" ry="0.43" width="4.91" height="1.89"/>
</g>
		<g transform="matrix(1 0 0 1 0.125 0.215)" id="Rate">
<path style="stroke: none; stroke-width: 1; stroke-dasharray: none; stroke-linecap: butt; stroke-dashoffset: 0; stroke-linejoin: miter; stroke-miterlimit: 4; is-custom-font: none; font-file-url: none; fill: rgb(123,129,128); fill-rule: evenodd; opacity: 1;" transform=" translate(-12.125, -12.215)" d="M 2.84 21.5 H 21.91 a 0.5 0.5 0 0 1 0 1 H 2.34 a 0.5 0.5 0 0 1 -0.5 -0.5 V 2.43 a 0.5 0.5 0 0 1 0.5 -0.5 a 0.5 0.5 0 0 1 0.5 0.5 Z" stroke-linecap="round"/>
</g>
		<g transform="matrix(1 0 0 1 -5.66 6.02)" id="Rate">
<path style="stroke: none; stroke-width: 1; stroke-dasharray: none; stroke-linecap: butt; stroke-dashoffset: 0; stroke-linejoin: miter; stroke-miterlimit: 4; is-custom-font: none; font-file-url: none; fill: rgb(123,129,128); fill-rule: evenodd; opacity: 1;" transform=" translate(-6.34, -18.02)" d="M 6.84 18.36 v -0.68 a 0.51 0.51 0 0 0 -0.5 -0.5 a 0.5 0.5 0 0 0 -0.5 0.5 v 0.68 a 0.5 0.5 0 0 0 0.5 0.5 A 0.51 0.51 0 0 0 6.84 18.36 Z" stroke-linecap="round"/>
</g>
		<g transform="matrix(1 0 0 1 -1.18 -6.515)" id="Rate">
<path style="stroke: none; stroke-width: 1; stroke-dasharray: none; stroke-linecap: butt; stroke-dashoffset: 0; stroke-linejoin: miter; stroke-miterlimit: 4; is-custom-font: none; font-file-url: none; fill: rgb(123,129,128); fill-rule: evenodd; opacity: 1;" transform=" translate(-10.82, -5.485)" d="M 11.32 5.82 V 5.15 a 0.5 0.5 0 0 0 -1 0 v 0.67 a 0.5 0.5 0 0 0 1 0 Z" stroke-linecap="round"/>
</g>
		<g transform="matrix(1 0 0 1 4.18 2.8)" id="Rate">
<path style="stroke: none; stroke-width: 1; stroke-dasharray: none; stroke-linecap: butt; stroke-dashoffset: 0; stroke-linejoin: miter; stroke-miterlimit: 4; is-custom-font: none; font-file-url: none; fill: rgb(123,129,128); fill-rule: evenodd; opacity: 1;" transform=" translate(-16.18, -14.8)" d="M 16.68 15.14 v -0.68 a 0.51 0.51 0 0 0 -0.5 -0.5 a 0.5 0.5 0 0 0 -0.5 0.5 v 0.68 a 0.5 0.5 0 0 0 0.5 0.5 A 0.51 0.51 0 0 0 16.68 15.14 Z" stroke-linecap="round"/>
</g>
		<g transform="matrix(1 0 0 1 8.5 -9.665)" id="Rate">
<path style="stroke: none; stroke-width: 1; stroke-dasharray: none; stroke-linecap: butt; stroke-dashoffset: 0; stroke-linejoin: miter; stroke-miterlimit: 4; is-custom-font: none; font-file-url: none; fill: rgb(123,129,128); fill-rule: evenodd; opacity: 1;" transform=" translate(-20.5, -2.335)" d="M 21 2.67 V 2 a 0.5 0.5 0 0 0 -1 0 v 0.67 a 0.5 0.5 0 0 0 1 0 Z" stroke-linecap="round"/>
</g>
		<g transform="matrix(1 0 0 1 5.715 8.17)" id="Rate">
<path style="stroke: none; stroke-width: 1; stroke-dasharray: none; stroke-linecap: butt; stroke-dashoffset: 0; stroke-linejoin: miter; stroke-miterlimit: 4; is-custom-font: none; font-file-url: none; fill: rgb(123,129,128); fill-rule: evenodd; opacity: 1;" transform=" translate(-17.715, -20.17)" d="M 16.26 20.67 h 2.91 a 0.5 0.5 0 0 0 0.5 -0.5 a 0.51 0.51 0 0 0 -0.5 -0.5 H 16.26 a 0.51 0.51 0 0 0 -0.5 0.5 A 0.5 0.5 0 0 0 16.26 20.67 Z" stroke-linecap="round"/>
</g>
</g>
</g>
</svg>