<svg xmlns="http://www.w3.org/2000/svg" xmlns:xlink="http://www.w3.org/1999/xlink" version="1.1" width="25" height="25" viewBox="0 -12 55 60" xml:space="preserve">
<desc></desc>
<defs>
</defs>
<rect x="0" y="0" width="100%" height="100%" fill="rgba(255,255,255,0)"/>
<g transform="matrix(1 0 0 1 24.5 24.5)" id="516003">
<path style="stroke: none; stroke-width: 0; stroke-dasharray: none; stroke-linecap: butt; stroke-dashoffset: 0; stroke-linejoin: miter; stroke-miterlimit: 4; is-custom-font: none; font-file-url: none; fill: rgb(195,20,212); fill-opacity: 0.77; fill-rule: nonzero; opacity: 1;" vector-effect="non-scaling-stroke" transform=" translate(-31.9839, -31.9842)" d="M 39.93 15.13 a 16.85 16.85 0 0 0 -7.89 2 A 16.89 16.89 0 1 0 32 46.86 a 16.87 16.87 0 1 0 8 -31.73 Z M 24.07 46.87 a 14.93 14.93 0 1 1 11.58 -5.59 a 10.15 10.15 0 0 1 -2.24 -1.4 a 12.29 12.29 0 1 0 -5.65 3.77 a 18 18 0 0 0 2.23 2 A 14.88 14.88 0 0 1 24.07 46.87 Z M 37.65 22 a 10.3 10.3 0 0 1 2.28 -0.27 a 10.23 10.23 0 1 1 0 20.46 A 10 10 0 0 1 37.66 42 a 16.8 16.8 0 0 0 0 -19.93 Z M 32 25.57 a 10.21 10.21 0 0 1 0 12.89 a 10.15 10.15 0 0 1 0 -12.89 Z M 26.34 22 a 16.8 16.8 0 0 0 0 19.93 a 9.74 9.74 0 0 1 -2.28 0.27 a 10.23 10.23 0 1 1 0 -20.46 A 10 10 0 0 1 26.34 22 Z M 39.93 46.87 A 14.84 14.84 0 0 1 28.35 22.72 a 10.13 10.13 0 0 1 2.26 1.42 a 12.27 12.27 0 1 0 5.63 -3.78 a 16.65 16.65 0 0 0 -2.23 -2 a 14.85 14.85 0 1 1 5.92 28.47 Z" stroke-linecap="round"/>
</g>
</svg>