<svg xmlns="http://www.w3.org/2000/svg" xmlns:xlink="http://www.w3.org/1999/xlink" version="1.1" width="40" height="40" viewBox="0 -21 55 60 " xml:space="preserve">
<desc>Created with Fabric.js 3.5.0</desc>
<defs>
</defs>
<rect x="0" y="0" width="100%" height="100%" fill="rgba(255,255,255,0)"/>
<g transform="matrix(0.0951 0 0 0.0951 25.1789 25.1789)" id="55355">
<g style="" vector-effect="non-scaling-stroke">
		<g transform="matrix(1 0 0 1 235.6 97.6)" id="Layer_1">
<path style="stroke: none; stroke-width: 1; stroke-dasharray: none; stroke-linecap: butt; stroke-dashoffset: 0; stroke-linejoin: miter; stroke-miterlimit: 4; is-custom-font: none; font-file-url: none; fill: rgb(241,82,4); fill-rule: nonzero; opacity: 1;" transform=" translate(-491.6, -353.6)" d="M 491.6 363.9 c -5.7 0 -10.3 -4.6 -10.3 -10.3 s 4.6 -10.3 10.3 -10.3 s 10.3 4.6 10.3 10.3 S 497.3 363.9 491.6 363.9 z M 491.6 350.3 c -1.8 0 -3.3 1.5 -3.3 3.3 s 1.5 3.3 3.3 3.3 c 1.8 0 3.3 -1.5 3.3 -3.3 S 493.4 350.3 491.6 350.3 z" stroke-linecap="round"/>
</g>
		<g transform="matrix(1 0 0 1 46 -195.4)" id="Layer_1">
<circle style="stroke: none; stroke-width: 1; stroke-dasharray: none; stroke-linecap: butt; stroke-dashoffset: 0; stroke-linejoin: miter; stroke-miterlimit: 4; is-custom-font: none; font-file-url: none; fill: rgb(0,0,0); fill-rule: nonzero; opacity: 1;" cx="0" cy="0" r="2.1"/>
</g>
		<g transform="matrix(1 0 0 1 -230.8 73.9)" id="Layer_1">
<circle style="stroke: none; stroke-width: 1; stroke-dasharray: none; stroke-linecap: butt; stroke-dashoffset: 0; stroke-linejoin: miter; stroke-miterlimit: 4; is-custom-font: none; font-file-url: none; fill: rgb(0,0,0); fill-rule: nonzero; opacity: 1;" cx="0" cy="0" r="2.1"/>
</g>
		<g transform="matrix(1 0 0 1 228.7 13.8)" id="Layer_1">
<circle style="stroke: none; stroke-width: 1; stroke-dasharray: none; stroke-linecap: butt; stroke-dashoffset: 0; stroke-linejoin: miter; stroke-miterlimit: 4; is-custom-font: none; font-file-url: none; fill: rgb(0,0,0); fill-rule: nonzero; opacity: 1;" cx="0" cy="0" r="2.1"/>
</g>
		<g transform="matrix(1 0 0 1 -235.7 158.7)" id="Layer_1">
<circle style="stroke: none; stroke-width: 1; stroke-dasharray: none; stroke-linecap: butt; stroke-dashoffset: 0; stroke-linejoin: miter; stroke-miterlimit: 4; is-custom-font: none; font-file-url: none; fill: rgb(0,0,0); fill-rule: nonzero; opacity: 1;" cx="0" cy="0" r="2.1"/>
</g>
		<g transform="matrix(1 0 0 1 -129.8 -160.7)" id="Layer_1">
<path style="stroke: none; stroke-width: 1; stroke-dasharray: none; stroke-linecap: butt; stroke-dashoffset: 0; stroke-linejoin: miter; stroke-miterlimit: 4; is-custom-font: none; font-file-url: none; fill: rgb(251,210,10); fill-rule: nonzero; opacity: 1;" transform=" translate(-126.2, -95.3)" d="M 126.2 107.2 c -6.6 0 -11.9 -5.3 -11.9 -11.9 s 5.3 -11.9 11.9 -11.9 c 6.6 0 11.9 5.3 11.9 11.9 S 132.8 107.2 126.2 107.2 z M 126.2 90.4 c -2.7 0 -4.9 2.2 -4.9 4.9 s 2.2 4.9 4.9 4.9 c 2.7 0 4.9 -2.2 4.9 -4.9 S 128.9 90.4 126.2 90.4 z" stroke-linecap="round"/>
</g>
		<g transform="matrix(1 0 0 1 -235.7 15.5)" id="Layer_1">
<path style="stroke: none; stroke-width: 1; stroke-dasharray: none; stroke-linecap: butt; stroke-dashoffset: 0; stroke-linejoin: miter; stroke-miterlimit: 4; is-custom-font: none; font-file-url: none; fill: rgb(241,82,4); fill-rule: nonzero; opacity: 1;" transform=" translate(-20.3, -271.5)" d="M 27.3 275 h -14 c -1.9 0 -3.5 -1.6 -3.5 -3.5 s 1.6 -3.5 3.5 -3.5 h 14 c 1.9 0 3.5 1.6 3.5 3.5 S 29.2 275 27.3 275 z" stroke-linecap="round"/>
</g>
		<g transform="matrix(1 0 0 1 -235.7 15.5)" id="Layer_1">
<path style="stroke: none; stroke-width: 1; stroke-dasharray: none; stroke-linecap: butt; stroke-dashoffset: 0; stroke-linejoin: miter; stroke-miterlimit: 4; is-custom-font: none; font-file-url: none; fill: rgb(241,82,4); fill-rule: nonzero; opacity: 1;" transform=" translate(-20.3, -271.5)" d="M 20.3 282 c -1.9 0 -3.5 -1.6 -3.5 -3.5 v -14 c 0 -1.9 1.6 -3.5 3.5 -3.5 s 3.5 1.6 3.5 3.5 v 14 C 23.8 280.4 22.2 282 20.3 282 z" stroke-linecap="round"/>
</g>
		<g transform="matrix(1 0 0 1 -186.5 -163.8)" id="Layer_1">
<circle style="stroke: none; stroke-width: 1; stroke-dasharray: none; stroke-linecap: butt; stroke-dashoffset: 0; stroke-linejoin: miter; stroke-miterlimit: 4; is-custom-font: none; font-file-url: none; fill: rgb(0,0,0); fill-rule: nonzero; opacity: 1;" cx="0" cy="0" r="3.1"/>
</g>
		<g transform="matrix(1 0 0 1 151.4 -115.1)" id="Layer_1">
<circle style="stroke: none; stroke-width: 1; stroke-dasharray: none; stroke-linecap: butt; stroke-dashoffset: 0; stroke-linejoin: miter; stroke-miterlimit: 4; is-custom-font: none; font-file-url: none; fill: rgb(0,0,0); fill-rule: nonzero; opacity: 1;" cx="0" cy="0" r="3.1"/>
</g>
		<g transform="matrix(1 0 0 1 -200.7 -126.1)" id="Layer_1">
<path style="stroke: none; stroke-width: 1; stroke-dasharray: none; stroke-linecap: butt; stroke-dashoffset: 0; stroke-linejoin: miter; stroke-miterlimit: 4; is-custom-font: none; font-file-url: none; fill: rgb(0,147,255); fill-rule: nonzero; opacity: 1;" transform=" translate(-55.3, -129.9)" d="M 62.3 126.4 h -3.5 v -3.5 c 0 -1.9 -1.6 -3.5 -3.5 -3.5 s -3.5 1.6 -3.5 3.5 v 3.5 h -3.5 c -1.9 0 -3.5 1.6 -3.5 3.5 s 1.6 3.5 3.5 3.5 h 3.5 v 3.5 c 0 1.9 1.6 3.5 3.5 3.5 s 3.5 -1.6 3.5 -3.5 v -3.5 h 3.5 c 1.9 0 3.5 -1.6 3.5 -3.5 S 64.2 126.4 62.3 126.4 z" stroke-linecap="round"/>
</g>
		<g transform="matrix(1 0 0 1 166.4 -147.3)" id="Layer_1">
<path style="stroke: none; stroke-width: 1; stroke-dasharray: none; stroke-linecap: butt; stroke-dashoffset: 0; stroke-linejoin: miter; stroke-miterlimit: 4; is-custom-font: none; font-file-url: none; fill: rgb(251,210,10); fill-rule: nonzero; opacity: 1;" transform=" translate(-422.4, -108.7)" d="M 429.4 105.2 h -3.5 v -3.5 c 0 -1.9 -1.6 -3.5 -3.5 -3.5 s -3.5 1.6 -3.5 3.5 v 3.5 h -3.5 c -1.9 0 -3.5 1.6 -3.5 3.5 s 1.6 3.5 3.5 3.5 h 3.5 v 3.5 c 0 1.9 1.6 3.5 3.5 3.5 s 3.5 -1.6 3.5 -3.5 v -3.5 h 3.5 c 1.9 0 3.5 -1.6 3.5 -3.5 S 431.3 105.2 429.4 105.2 z" stroke-linecap="round"/>
</g>
		<g transform="matrix(1 0 0 1 0 -126.1)" id="Layer_1">
<path style="stroke: none; stroke-width: 1; stroke-dasharray: none; stroke-linecap: butt; stroke-dashoffset: 0; stroke-linejoin: miter; stroke-miterlimit: 4; is-custom-font: none; font-file-url: none; fill: rgb(251,254,255); fill-rule: nonzero; opacity: 1;" transform=" translate(-256, -129.9)" d="M 314.6 87.5 H 197.4 c -28.4 0 -51.4 23 -51.4 51.4 v 33.4 h 37.2 v -22.1 c 0 -17.3 14 -31.3 31.3 -31.3 h 83.1 c 17.3 0 31.3 14 31.3 31.3 v 22.1 H 366 v -33.4 C 366 110.5 343 87.5 314.6 87.5 z" stroke-linecap="round"/>
</g>
		<g transform="matrix(1 0 0 1 8.85 -129.4)" id="Layer_1">
<path style="stroke: none; stroke-width: 1; stroke-dasharray: none; stroke-linecap: butt; stroke-dashoffset: 0; stroke-linejoin: miter; stroke-miterlimit: 4; is-custom-font: none; font-file-url: none; fill: rgb(0,147,255); fill-rule: nonzero; opacity: 1;" transform=" translate(-264.85, -126.6)" d="M 314.6 88.9 L 215 87.5 c -28.4 0 -51.4 23 -51.4 51.4 v 26.4 h 19.6 v -15.1 c 0 -17.3 14 -31.3 31.3 -31.3 h 83.1 c 17.3 0 31.3 14 31.3 31.3 v 15.4 l 37.2 0.1 v -25.4 C 366 111.9 343 88.9 314.6 88.9 z" stroke-linecap="round"/>
</g>
		<g transform="matrix(1 0 0 1 0 -126.1)" id="Layer_1">
<path style="stroke: none; stroke-width: 1; stroke-dasharray: none; stroke-linecap: butt; stroke-dashoffset: 0; stroke-linejoin: miter; stroke-miterlimit: 4; is-custom-font: none; font-file-url: none; fill: rgb(0,0,0); fill-rule: nonzero; opacity: 1;" transform=" translate(-256, -129.9)" d="M 366 178.3 h -37.1 c -3.3 0 -6 -2.7 -6 -6 v -22.1 c 0 -14 -11.3 -25.3 -25.3 -25.3 h -83.1 c -14 0 -25.3 11.3 -25.3 25.3 v 22.1 c 0 3.3 -2.7 6 -6 6 H 146 c -3.3 0 -6 -2.7 -6 -6 v -33.4 c 0 -31.7 25.7 -57.4 57.4 -57.4 h 117.2 c 31.7 0 57.4 25.7 57.4 57.4 v 33.4 C 372 175.6 369.3 178.3 366 178.3 z M 334.9 166.3 H 360 v -27.4 c 0 -25 -20.4 -45.4 -45.4 -45.4 H 197.4 c -25 0 -45.4 20.4 -45.4 45.4 v 27.4 h 25.2 v -16.1 c 0 -20.6 16.7 -37.3 37.3 -37.3 h 83.1 c 20.6 0 37.3 16.7 37.3 37.3 V 166.3 z" stroke-linecap="round"/>
</g>
		<g transform="matrix(1 0 0 1 187.05 38.9)" id="Layer_1">
<path style="stroke: none; stroke-width: 1; stroke-dasharray: none; stroke-linecap: butt; stroke-dashoffset: 0; stroke-linejoin: miter; stroke-miterlimit: 4; is-custom-font: none; font-file-url: none; fill: rgb(55,105,165); fill-rule: nonzero; opacity: 1;" transform=" translate(-443.05, -294.9)" d="M 447.8 424.5 h -25.4 V 165.3 h 25.4 c 8.8 0 15.9 7.1 15.9 15.9 v 227.4 C 463.7 417.4 456.6 424.5 447.8 424.5 z" stroke-linecap="round"/>
</g>
		<g transform="matrix(1 0 0 1 -188.35 38.9)" id="Layer_1">
<path style="stroke: none; stroke-width: 1; stroke-dasharray: none; stroke-linecap: butt; stroke-dashoffset: 0; stroke-linejoin: miter; stroke-miterlimit: 4; is-custom-font: none; font-file-url: none; fill: rgb(251,254,255); fill-rule: nonzero; opacity: 1;" transform=" translate(-67.65, -294.9)" d="M 87 424.5 H 64.2 c -8.8 0 -15.9 -7.1 -15.9 -15.9 V 181.2 c 0 -8.8 7.1 -15.9 15.9 -15.9 H 87 V 424.5 z" stroke-linecap="round"/>
</g>
		<g transform="matrix(1 0 0 1 -2.15 38.9)" id="Layer_1">
<path style="stroke: none; stroke-width: 1; stroke-dasharray: none; stroke-linecap: butt; stroke-dashoffset: 0; stroke-linejoin: miter; stroke-miterlimit: 4; is-custom-font: none; font-file-url: none; fill: rgb(0,147,255); fill-rule: nonzero; opacity: 1;" transform=" translate(-253.85, -294.9)" d="M 425.9 424.5 H 81.8 c -8.8 0 -15.9 -7.1 -15.9 -15.9 V 181.2 c 0 -8.8 7.1 -15.9 15.9 -15.9 h 344.1 c 8.8 0 15.9 7.1 15.9 15.9 v 227.4 C 441.8 417.4 434.7 424.5 425.9 424.5 z" stroke-linecap="round"/>
</g>
		<g transform="matrix(1 0 0 1 113 -36.4863)" id="Layer_1">
<path style="stroke: none; stroke-width: 1; stroke-dasharray: none; stroke-linecap: butt; stroke-dashoffset: 0; stroke-linejoin: miter; stroke-miterlimit: 4; is-custom-font: none; font-file-url: none; fill: rgb(0,0,0); fill-rule: nonzero; opacity: 1;" transform=" translate(-369, -219.5137)" d="M 290.2 279.7 c -1.9 0 -3.8 -0.9 -4.9 -2.6 c -1.9 -2.7 -1.2 -6.5 1.5 -8.3 l 157.6 -108.4 c 2.7 -1.9 6.5 -1.2 8.3 1.5 c 1.9 2.7 1.2 6.5 -1.5 8.3 L 293.6 278.6 C 292.6 279.4 291.4 279.7 290.2 279.7 z" stroke-linecap="round"/>
</g>
		<g transform="matrix(1 0 0 1 -113 -36.1363)" id="Layer_1">
<path style="stroke: none; stroke-width: 1; stroke-dasharray: none; stroke-linecap: butt; stroke-dashoffset: 0; stroke-linejoin: miter; stroke-miterlimit: 4; is-custom-font: none; font-file-url: none; fill: rgb(0,0,0); fill-rule: nonzero; opacity: 1;" transform=" translate(-143, -219.8637)" d="M 221.8 280.1 c -1.2 0 -2.4 -0.3 -3.4 -1.1 L 60.8 170.5 c -2.7 -1.9 -3.4 -5.6 -1.5 -8.3 c 1.9 -2.7 5.6 -3.4 8.3 -1.5 l 157.6 108.5 c 2.7 1.9 3.4 5.6 1.5 8.3 C 225.6 279.2 223.7 280.1 221.8 280.1 z" stroke-linecap="round"/>
</g>
		<g transform="matrix(1 0 0 1 0 38.9)" id="Layer_1">
<path style="stroke: none; stroke-width: 1; stroke-dasharray: none; stroke-linecap: butt; stroke-dashoffset: 0; stroke-linejoin: miter; stroke-miterlimit: 4; is-custom-font: none; font-file-url: none; fill: rgb(0,0,0); fill-rule: nonzero; opacity: 1;" transform=" translate(-256, -294.9)" d="M 447.8 430.5 H 64.2 c -12.1 0 -21.9 -9.8 -21.9 -21.9 V 181.2 c 0 -12.1 9.8 -21.9 21.9 -21.9 h 383.6 c 12.1 0 21.9 9.8 21.9 21.9 v 227.4 C 469.7 420.7 459.9 430.5 447.8 430.5 z M 64.2 171.3 c -5.5 0 -9.9 4.4 -9.9 9.9 v 227.4 c 0 5.5 4.4 9.9 9.9 9.9 h 383.6 c 5.5 0 9.9 -4.4 9.9 -9.9 V 181.2 c 0 -5.5 -4.4 -9.9 -9.9 -9.9 H 64.2 z" stroke-linecap="round"/>
</g>
		<g transform="matrix(1 0 0 1 0.0005 30.8)" id="Layer_1">
<path style="stroke: none; stroke-width: 1; stroke-dasharray: none; stroke-linecap: butt; stroke-dashoffset: 0; stroke-linejoin: miter; stroke-miterlimit: 4; is-custom-font: none; font-file-url: none; fill: rgb(55,105,165); fill-rule: nonzero; opacity: 1;" transform=" translate(-256.0005, -286.8)" d="M 271 329.9 h -30 c -9.7 0 -17.6 -7.9 -17.6 -17.6 v -51 c 0 -9.7 7.9 -17.6 17.6 -17.6 h 30 c 9.7 0 17.6 7.9 17.6 17.6 v 51 C 288.7 322 280.8 329.9 271 329.9 z" stroke-linecap="round"/>
</g>
		<g transform="matrix(1 0 0 1 -16.3 30.8)" id="Layer_1">
<path style="stroke: none; stroke-width: 1; stroke-dasharray: none; stroke-linecap: butt; stroke-dashoffset: 0; stroke-linejoin: miter; stroke-miterlimit: 4; is-custom-font: none; font-file-url: none; fill: rgb(251,254,255); fill-rule: nonzero; opacity: 1;" transform=" translate(-239.7, -286.8)" d="M 255.2 329.9 H 241 c -9.7 0 -17.6 -7.9 -17.6 -17.6 v -51 c 0 -9.7 7.9 -17.6 17.6 -17.6 h 14.2 c 0.5 0 0.8 0.4 0.8 0.8 v 84.6 C 256 329.5 255.6 329.9 255.2 329.9 z" stroke-linecap="round"/>
</g>
		<g transform="matrix(1 0 0 1 -2.2 30.8)" id="Layer_1">
<path style="stroke: none; stroke-width: 1; stroke-dasharray: none; stroke-linecap: butt; stroke-dashoffset: 0; stroke-linejoin: miter; stroke-miterlimit: 4; is-custom-font: none; font-file-url: none; fill: rgb(0,147,255); fill-rule: nonzero; opacity: 1;" transform=" translate(-253.8, -286.8)" d="M 253.8 329.9 L 253.8 329.9 c -7.1 0 -12.9 -5.8 -12.9 -12.9 v -60.4 c 0 -7.1 5.8 -12.9 12.9 -12.9 l 0 0 c 7.1 0 12.9 5.8 12.9 12.9 V 317 C 266.7 324.1 260.9 329.9 253.8 329.9 z" stroke-linecap="round"/>
</g>
		<g transform="matrix(1 0 0 1 0.0015 30.8)" id="Layer_1">
<path style="stroke: none; stroke-width: 1; stroke-dasharray: none; stroke-linecap: butt; stroke-dashoffset: 0; stroke-linejoin: miter; stroke-miterlimit: 4; is-custom-font: none; font-file-url: none; fill: rgb(0,0,0); fill-rule: nonzero; opacity: 1;" transform=" translate(-256.0015, -286.8)" d="M 271 335.9 h -30 c -13 0 -23.6 -10.6 -23.6 -23.6 v -51 c 0 -13 10.6 -23.6 23.6 -23.6 h 30 c 13 0 23.6 10.6 23.6 23.6 v 51 c 0.1 6.2 -2.3 12.1 -6.8 16.6 C 283.4 333.4 277.4 335.9 271 335.9 z M 241 249.7 c -6.4 0 -11.6 5.2 -11.6 11.6 v 51 c 0 6.4 5.2 11.6 11.6 11.6 h 30 c 3.2 0 6.1 -1.2 8.3 -3.4 c 2.2 -2.2 3.3 -5 3.3 -8.1 v -51.1 c 0 -6.4 -5.2 -11.6 -11.6 -11.6 H 241 z" stroke-linecap="round"/>
</g>
		<g transform="matrix(1 0 0 1 -177.3 124.3)" id="Layer_1">
<path style="stroke: none; stroke-width: 1; stroke-dasharray: none; stroke-linecap: butt; stroke-dashoffset: 0; stroke-linejoin: miter; stroke-miterlimit: 4; is-custom-font: none; font-file-url: none; fill: rgb(255,255,255); fill-rule: nonzero; opacity: 1;" transform=" translate(-78.7, -380.3)" d="M 78.7 400.2 c -1.9 0 -3.5 -1.6 -3.5 -3.5 v -32.8 c 0 -1.9 1.6 -3.5 3.5 -3.5 s 3.5 1.6 3.5 3.5 v 32.8 C 82.2 398.6 80.6 400.2 78.7 400.2 z" stroke-linecap="round"/>
</g>
		<g transform="matrix(1 0 0 1 -165 -54.6)" id="Layer_1">
<path style="stroke: none; stroke-width: 1; stroke-dasharray: none; stroke-linecap: butt; stroke-dashoffset: 0; stroke-linejoin: miter; stroke-miterlimit: 4; is-custom-font: none; font-file-url: none; fill: rgb(255,255,255); fill-rule: nonzero; opacity: 1;" transform=" translate(-91, -201.4)" d="M 78.7 217.2 c -1.9 0 -3.5 -1.6 -3.5 -3.5 c 0 -15.5 12.6 -28.1 28.1 -28.1 c 1.9 0 3.5 1.6 3.5 3.5 s -1.6 3.5 -3.5 3.5 c -11.6 0 -21.1 9.5 -21.1 21.1 C 82.2 215.6 80.6 217.2 78.7 217.2 z" stroke-linecap="round"/>
</g>
		<g transform="matrix(1 0 0 1 -177.3 -26.65)" id="Layer_1">
<path style="stroke: none; stroke-width: 1; stroke-dasharray: none; stroke-linecap: butt; stroke-dashoffset: 0; stroke-linejoin: miter; stroke-miterlimit: 4; is-custom-font: none; font-file-url: none; fill: rgb(255,255,255); fill-rule: nonzero; opacity: 1;" transform=" translate(-78.7, -229.35)" d="M 78.7 235.6 c -1.9 0 -3.5 -1.6 -3.5 -3.5 v -5.5 c 0 -1.9 1.6 -3.5 3.5 -3.5 s 3.5 1.6 3.5 3.5 v 5.5 C 82.2 234 80.6 235.6 78.7 235.6 z" stroke-linecap="round"/>
</g>
</g>
</g>
</svg>